#N canvas 206 0 667 679 10;
#X obj 105 65 oscparse;
#X obj 105 40 netreceive -u -b;
#X msg 117 13 listen 0;
#X obj 105 89 route list;
#X msg 105 -15 listen 3333;
#X obj 105 114 route 53ad73ed6836680200ca245e;
#X obj 105 136 route 53ad74156836680200ca245f;
#X obj 105 158 route value;
#X floatatom 117 186 5 0 0 0 - - -, f 5;
#X text 104 -61 You need Pd "vanilla" 0.46.0 or greater to use this
code;
#X obj 105 -38 loadbang;
#X text 328 115 box id;
#X text 329 137 sensor id;
#X text 202 -17 listen port 3333;
#X obj 250 222 change;
#X obj 250 243 t f b;
#X obj 250 268 osc~;
#X obj 324 289 vline~;
#X obj 251 315 *~;
#X obj 250 355 rev3~ 100 90 3000 20;
#X obj 249 381 dac~;
#X msg 324 260 1 5 \, 0 0 250;
#X text 331 221 make some noise;
#X text 403 356 make it reveberate !;
#X msg 31 -14 \; pd dsp 1 \;;
#X connect 0 0 3 0;
#X connect 1 0 0 0;
#X connect 2 0 1 0;
#X connect 3 0 5 0;
#X connect 4 0 1 0;
#X connect 5 0 6 0;
#X connect 6 0 7 0;
#X connect 7 0 8 0;
#X connect 7 0 14 0;
#X connect 10 0 4 0;
#X connect 10 0 24 0;
#X connect 14 0 15 0;
#X connect 15 0 16 0;
#X connect 15 1 21 0;
#X connect 16 0 18 0;
#X connect 17 0 18 1;
#X connect 18 0 19 0;
#X connect 19 0 20 0;
#X connect 19 1 20 1;
#X connect 21 0 17 0;
